<svg xmlns="http://www.w3.org/2000/svg" width="49" height="28" viewBox="0 0 49 28">
  <g id="_1" data-name="1" transform="translate(49) rotate(90)" opacity="0.2">
    <g id="hexagons">
      <path id="Path_1" data-name="Path 1" d="M13.99,9.25l13,7.5v15l-13,7.5L1,31.75v-15ZM3,17.9V30.6l10.99,6.34,11-6.35V17.9l-11-6.34ZM0,15,12.98,7.5V0h-2V6.35L0,12.69v2.3ZM0,33.5,12.98,41v8h-2V42.15L0,35.81v-2.3ZM15,0V7.5L27.99,15H28V12.69h-.01L17,6.35V0Zm0,49V41l12.99-7.5H28v2.31h-.01L17,42.15V49Z" fill="#f7f7f7"/>
    </g>
  </g>
</svg>
